<svg width="325" height="341" viewBox="0 0 325 341" fill="none" xmlns="http://www.w3.org/2000/svg">
<path d="M222.07 107.62L222.38 99.89C222.38 99.89 224.45 97.84 224.45 96.51C224.45 95.18 222.07 87.57 221.03 87.21C219.99 86.85 214.4 89.5 214.3 91.21C214.2 92.92 217.2 99.21 217.72 99.67L216.89 107.88L222.07 107.62Z" fill="#E4897B"/>
<path d="M306.3 96.95L303.64 89.3C302.507 88.4904 301.456 87.5728 300.5 86.56C299.77 85.56 303.84 78.35 304.44 78.35C306.412 79.0854 308.26 80.1172 309.92 81.41C310.52 82.13 307.34 88.01 307.34 88.01L311.29 94.61L306.3 96.95Z" fill="#E4897B"/>
<path d="M290.83 95.66C294.5 96.02 312.13 114.87 312.13 114.87L304.52 93.73L310.52 91.68C310.52 91.68 325.38 115.35 322.12 124.04C318.86 132.73 289.75 112.81 289.75 112.81L290.83 95.66Z" fill="#407BFF"/>
<path d="M234.41 320.61L230.3 315.24L237.26 308.52L243.59 302.42L249.54 307.98L241.54 314.67L234.41 320.61Z" fill="#E4897B"/>
<path d="M230.06 313.59C230.67 313.16 235.76 320.79 235.76 320.79C235.76 320.79 234.63 328.79 236.93 333.88C239.23 338.97 234.76 338.58 231.04 333.72L221.86 321.72C219.22 318.23 223.81 318.12 230.06 313.59Z" fill="#2E353A"/>
<path d="M235.68 322.27C235.68 322.27 239.09 321.17 239.49 323.01C239.94 325.13 235.68 322.27 235.68 322.27ZM235.68 322.27C235.68 322.27 239.12 324.83 238.21 325.99C236.83 327.73 235.68 322.27 235.68 322.27Z" stroke="#407BFF" stroke-width="0.48312" stroke-linecap="round" stroke-linejoin="round"/>
<path opacity="0.2" d="M241.54 314.67L237.26 308.52L243.59 302.42L249.54 307.98L241.54 314.67Z" fill="black"/>
<path d="M275.54 329.12H268.77L267.66 319.7L266.66 311.06L274.69 309.75L275.14 320.01L275.54 329.12Z" fill="#E4897B"/>
<path d="M267.32 328.69C267.32 327.94 276.5 328.53 276.5 328.53C276.5 328.53 282.14 334.26 287.61 335.53C293.08 336.8 290.03 340.12 283.89 340.12H268.77C264.42 340.12 267.14 336.42 267.32 328.69Z" fill="#2E353A"/>
<path d="M277.63 329.49C277.63 329.49 278.83 326.11 280.53 326.91C282.53 327.84 277.63 329.49 277.63 329.49ZM277.63 329.49C277.63 329.49 281.76 328.31 282.12 329.73C282.67 331.89 277.63 329.49 277.63 329.49Z" stroke="#407BFF" stroke-width="0.48312" stroke-linecap="round" stroke-linejoin="round"/>
<path opacity="0.2" d="M275.14 320.22L267.66 319.89L266.66 311.15L274.69 309.8L275.14 320.22Z" fill="black"/>
<path d="M292.42 166.38C292.42 166.38 312.42 213.63 315.55 234.38C318.68 255.13 247.69 310.69 247.69 310.69L240.43 302.97C240.43 302.97 293.25 248.67 293.25 239.33C293.25 229.99 272.65 187.33 272.65 187.33C272.65 187.33 270.66 170.12 292.42 166.38Z" fill="#407BFF"/>
<path opacity="0.6" d="M277.95 284.82C270.7 291.5 263.68 297.53 258.23 302.09C251.9 307.37 247.69 310.67 247.69 310.67L240.43 302.95C240.43 302.95 247.69 295.5 256.81 285.63C263.99 277.87 272.34 268.63 279.23 260.35C287.23 250.75 293.23 242.46 293.23 239.35C293.23 234.42 287.5 220.24 282.09 207.92C277.23 196.92 272.63 187.35 272.63 187.35C272.492 185.385 272.685 183.411 273.2 181.51C274.59 176.16 278.98 168.73 292.41 166.42C292.41 166.42 312.41 213.67 315.53 234.42C317.27 245.69 296.83 267.44 277.95 284.82Z" fill="white"/>
<path opacity="0.2" d="M279.23 260.35L277.95 284.82C270.7 291.5 263.68 297.53 258.23 302.09C256.977 296.699 256.499 291.156 256.81 285.63C263.99 277.87 272.34 268.63 279.23 260.35Z" fill="black"/>
<path opacity="0.2" d="M282.11 207.88C277.25 196.88 272.65 187.31 272.65 187.31C272.512 185.345 272.705 183.371 273.22 181.47C273.91 181.002 274.679 180.664 275.49 180.47C275.49 180.47 281.4 189.8 282.11 207.88Z" fill="black"/>
<path d="M256.4 57.94C256.4 57.94 262.47 50.37 272.4 52.06C282.33 53.75 280.61 72.12 280.61 72.12C282.465 73.7075 283.846 75.776 284.601 78.0979C285.356 80.4198 285.456 82.905 284.89 85.28C282.95 93.61 260.3 98.43 251.64 92.64C242.98 86.85 249.64 68.48 253.85 65.88C258.06 63.28 256.4 57.94 256.4 57.94Z" fill="#2E353A"/>
<path d="M275.68 180.52L276.89 247.04V315.12H265.56C238.5 186.12 257.05 153.78 257.05 153.78H257.12C257.12 153.73 257.12 153.67 257.18 153.63C261.53 143.97 290.03 151.09 290.03 151.09C292.08 159.09 293.34 175.36 293.34 175.36L275.68 180.52Z" fill="#407BFF"/>
<path opacity="0.6" d="M275.68 180.52L276.89 247.04V315.12H265.56C238.5 186.12 257.05 153.78 257.05 153.78H257.12C257.12 153.73 257.12 153.67 257.18 153.63C261.53 143.97 290.03 151.09 290.03 151.09C292.08 159.09 293.34 175.36 293.34 175.36L275.68 180.52Z" fill="white"/>
<path d="M256.89 148.8V153.64L289.89 151.11V145.39L256.89 148.8Z" fill="#2E353A"/>
<path d="M267.952 146.801L266.314 146.885L266.739 155.224L268.377 155.141L267.952 146.801Z" fill="#407BFF"/>
<path d="M282.265 146.547L275.054 147.193L275.544 152.661L282.755 152.015L282.265 146.547Z" fill="white"/>
<path d="M288.123 144.567L286.485 144.651L286.91 152.99L288.548 152.907L288.123 144.567Z" fill="#407BFF"/>
<path opacity="0.6" d="M267.952 146.801L266.314 146.885L266.739 155.224L268.377 155.141L267.952 146.801Z" fill="white"/>
<path opacity="0.6" d="M288.123 144.567L286.485 144.651L286.91 152.99L288.548 152.907L288.123 144.567Z" fill="white"/>
<path d="M290.03 145.97L257.03 148.82C256.25 136.55 255.47 128.64 248.2 106.82C247.57 104.91 246.89 102.88 246.14 100.74C250.621 99.3093 255.2 98.2031 259.84 97.43C264.737 96.5603 269.689 96.039 274.66 95.87C281.08 95.87 288.46 96.54 288.46 96.54C288.46 96.54 289.51 96.79 290.17 103.6C290.76 109.94 291.35 122.72 290.03 145.97Z" fill="#407BFF"/>
<path opacity="0.3" d="M290.03 145.97L257.03 148.82C256.25 136.55 255.47 128.64 248.2 106.82C247.57 104.91 246.89 102.88 246.14 100.74C250.621 99.3093 255.2 98.2031 259.84 97.43C264.737 96.5603 269.689 96.039 274.66 95.87C281.08 95.87 288.46 96.54 288.46 96.54C288.46 96.54 289.51 96.79 290.17 103.6C290.76 109.94 291.35 122.72 290.03 145.97Z" fill="black"/>
<path d="M271.89 103.12C263.75 102.12 261.31 98.6 261.31 98.6C266.47 93.73 262.18 85.29 262.18 85.29L271.97 87.12C271.74 88.4852 271.613 89.8658 271.59 91.25C271.51 97.19 274.2 97.25 274.2 97.25C275.96 100.46 271.89 103.12 271.89 103.12Z" fill="#E4897B"/>
<path opacity="0.2" d="M272.01 87.12C271.78 88.4852 271.653 89.8658 271.63 91.25C266.91 90.15 262.22 85.25 262.22 85.25L272.01 87.12Z" fill="black"/>
<path d="M263.28 60.01C271.58 58.01 275.28 61.86 277.93 70.26C281.22 80.76 280.65 88.91 269.74 89.09C254.89 89.33 249.51 63.28 263.28 60.01Z" fill="#E4897B"/>
<path d="M272.46 71.12C273.418 72.2021 274.503 73.1656 275.69 73.99C275.526 74.3949 275.252 74.7455 274.898 75.0019C274.544 75.2582 274.126 75.4101 273.69 75.44L272.46 71.12Z" fill="#DE5753"/>
<path d="M267.22 71.59C267.4 72.27 267.22 72.91 266.73 73.03C266.24 73.15 265.73 72.7 265.59 72.03C265.45 71.36 265.59 70.71 266.08 70.59C266.57 70.47 267.05 70.91 267.22 71.59Z" fill="#2E353A"/>
<path d="M265.89 70.66L267.22 69.66C267.22 69.66 266.82 71.12 265.89 70.66Z" fill="#2E353A"/>
<path d="M275.61 69.25C275.79 69.92 275.56 70.57 275.11 70.69C274.66 70.81 274.11 70.35 273.97 69.69C273.83 69.03 274.02 68.37 274.47 68.25C274.92 68.13 275.43 68.57 275.61 69.25Z" fill="#2E353A"/>
<path d="M274.29 68.31L275.61 67.31C275.61 67.31 275.2 68.78 274.29 68.31Z" fill="#2E353A"/>
<path d="M265.78 65.88C265.105 65.9559 264.457 66.1856 263.885 66.5514C263.313 66.9172 262.832 67.4094 262.48 67.99" stroke="#2E353A" stroke-width="0.72468" stroke-linecap="round" stroke-linejoin="round"/>
<path d="M271.73 64.12C272.264 63.8437 272.853 63.6913 273.454 63.6739C274.054 63.6566 274.651 63.7749 275.2 64.02" stroke="#2E353A" stroke-width="0.72468" stroke-linecap="round" stroke-linejoin="round"/>
<path d="M273.29 78.94C273.121 79.9686 273.024 81.0078 273 82.05L272.46 82.13C269.99 82.46 268.73 81.79 268.09 80.96C267.786 80.5425 267.584 80.0596 267.5 79.55C267.459 79.2614 267.459 78.9685 267.5 78.68C269.121 79.1586 270.827 79.2814 272.5 79.04C272.96 79 273.29 78.94 273.29 78.94Z" fill="#2E353A"/>
<path d="M272.44 79.04L272.34 79.96C270.01 80.26 268.34 80.16 267.5 79.55C267.459 79.2614 267.459 78.9685 267.5 78.68C269.102 79.1499 270.786 79.2727 272.44 79.04Z" fill="white"/>
<path d="M272.46 82.12C269.99 82.45 268.73 81.78 268.09 80.95C269.026 80.8413 269.974 80.8989 270.89 81.12C271.506 81.2784 272.056 81.6286 272.46 82.12Z" fill="#DE5753"/>
<path d="M257.53 76.12C257.53 76.12 259.79 68.39 257.96 63.27C257.96 63.27 272.8 52.66 277.57 69.15C277.57 69.15 275.67 53.95 261.33 57C246.99 60.05 252 80.9 260.83 85.37C260.83 85.39 256.14 80.97 257.53 76.12Z" fill="#2E353A"/>
<path d="M259.3 77.57C258.991 76.6316 258.323 75.8536 257.443 75.4058C256.562 74.9581 255.54 74.8769 254.6 75.18C252.09 76.06 252.12 81.63 258.81 81.39C259.77 81.35 260.08 80.33 259.3 77.57Z" fill="#E4897B"/>
<path d="M290.16 103.55C277.76 109.68 258.76 108.25 248.16 106.77C247.53 104.86 246.85 102.83 246.1 100.69C250.581 99.2593 255.16 98.1531 259.8 97.38C264.697 96.5103 269.649 95.989 274.62 95.82C281.04 95.82 288.42 96.49 288.42 96.49C288.42 96.49 289.5 96.74 290.16 103.55Z" fill="#E4897B"/>
<path d="M253.06 97.35C253.06 97.35 261.95 108.71 262.22 121.02C262.49 133.33 254.28 190.12 254.28 190.12L244.38 187.32C244.38 187.32 251.86 143.62 244.38 101.41L253.06 97.35Z" fill="#407BFF"/>
<path d="M280.61 96.12C280.61 96.12 284.23 107.89 283.75 116.35C283.27 124.81 292.42 166.46 292.42 166.46L295.08 172.86L292.45 147.03C292.45 147.03 294.04 109.12 290.83 96.12H280.61Z" fill="#407BFF"/>
<path d="M263.28 60.01C263.28 60.01 266.35 70.46 257 75.19C245.7 80.91 246.78 93.27 257.8 94.84C257.8 94.84 246.67 93.72 244.51 86.45C242.35 79.18 248.51 67.99 248.51 67.99C248.51 67.99 245.13 61.84 254.26 56.99C259.38 54.29 263.28 60.01 263.28 60.01Z" fill="#2E353A"/>
<path d="M264.1 313.49L278.26 311.41L277.08 317.07L265.39 318.64L264.1 313.49Z" fill="#407BFF"/>
<path d="M240.43 300.34L249.93 310.67L245.18 313.39L237.85 305.61L240.43 300.34Z" fill="#407BFF"/>
<path d="M296.71 73.48C295 70.42 291.71 69.02 289.29 70.36C286.87 71.7 286.36 75.25 288.06 78.31C289.76 81.37 293.06 82.76 295.48 81.43C297.9 80.1 298.42 76.53 296.71 73.48Z" fill="#407BFF"/>
<path d="M316.12 62.76L310.24 51.95C310.24 51.95 306.14 60.76 300.24 64.06L303.24 69.42L303.71 70.26L306.71 75.62C312.61 72.32 322.26 73.43 322.26 73.43L316.12 62.76Z" fill="#407BFF"/>
<path opacity="0.8" d="M296.71 73.48C295 70.42 291.71 69.02 289.29 70.36C286.87 71.7 286.36 75.25 288.06 78.31C289.76 81.37 293.06 82.76 295.48 81.43C297.9 80.1 298.42 76.53 296.71 73.48Z" fill="white"/>
<path opacity="0.8" d="M316.12 62.76L310.24 51.95C310.24 51.95 306.14 60.76 300.24 64.06L303.24 69.42L303.71 70.26L306.71 75.62C312.61 72.32 322.26 73.43 322.26 73.43L316.12 62.76Z" fill="white"/>
<path d="M296.31 79.81C296.31 79.81 300.56 85.96 304.53 88.21C304.667 88.2845 304.826 88.3073 304.978 88.2743C305.131 88.2412 305.266 88.1545 305.36 88.03L308.75 83.84C308.808 83.7606 308.848 83.6694 308.867 83.5729C308.886 83.4763 308.884 83.3768 308.86 83.2813C308.836 83.1859 308.791 83.0968 308.729 83.0205C308.667 82.9443 308.589 82.8826 308.5 82.84C306.83 82.1 302.93 80.2 300.68 77.54C297.76 74.06 296.31 79.81 296.31 79.81Z" fill="#407BFF"/>
<path opacity="0.3" d="M296.31 79.81C296.31 79.81 300.56 85.96 304.53 88.21C304.667 88.2845 304.826 88.3073 304.978 88.2743C305.131 88.2412 305.266 88.1545 305.36 88.03L308.75 83.84C308.808 83.7606 308.848 83.6694 308.867 83.5729C308.886 83.4763 308.884 83.3768 308.86 83.2813C308.836 83.1859 308.791 83.0968 308.729 83.0205C308.667 82.9443 308.589 82.8826 308.5 82.84C306.83 82.1 302.93 80.2 300.68 77.54C297.76 74.06 296.31 79.81 296.31 79.81Z" fill="black"/>
<path d="M322.19 73.75C320.84 74.5 317 70.21 313.62 64.16C310.24 58.11 308.62 52.6 309.95 51.84C311.28 51.08 315.14 55.38 318.52 61.42C321.9 67.46 323.55 72.99 322.19 73.75Z" fill="white"/>
<path opacity="0.4" d="M321.64 71.96C320.64 72.53 317.64 69.15 314.81 64.3C314.65 64.03 314.49 63.74 314.33 63.45C314.17 63.16 313.95 62.77 313.77 62.45C311.18 57.55 309.9 53.33 310.9 52.77C311.9 52.21 315.27 55.98 318.23 61.28C321.19 66.58 322.72 71.36 321.64 71.96Z" fill="black"/>
<path d="M294.89 82.55C294.89 82.55 293.44 81.55 290.81 76.81C287.96 71.71 288.04 70.29 288.04 70.29L301.21 62.92C301.21 62.92 301.37 64.77 304.04 69.55C306.71 74.33 308.04 75.18 308.04 75.18L294.89 82.55Z" fill="#407BFF"/>
<path d="M314.81 64.3C314.65 64.03 314.49 63.74 314.33 63.45C314.17 63.16 313.95 62.77 313.77 62.45L315.13 62.02C315.275 61.9751 315.431 61.9848 315.57 62.0475C315.708 62.1102 315.818 62.2214 315.88 62.36L315.99 62.56C316.076 62.6835 316.114 62.8346 316.095 62.9842C316.077 63.1337 316.004 63.2712 315.89 63.37L314.81 64.3Z" fill="white"/>
<path opacity="0.2" d="M314.81 64.3C314.65 64.03 314.49 63.74 314.33 63.45C314.17 63.16 313.95 62.77 313.77 62.45L315.13 62.02C315.275 61.9751 315.431 61.9848 315.57 62.0475C315.708 62.1102 315.818 62.2214 315.88 62.36L315.99 62.56C316.076 62.6835 316.114 62.8346 316.095 62.9842C316.077 63.1337 316.004 63.2712 315.89 63.37L314.81 64.3Z" fill="black"/>
<path d="M244.38 101.4C239.79 103.4 223.38 132.7 223.38 132.7L223.06 105L215.65 104C215.65 104 211.14 143.29 220.8 145.54C230.46 147.79 248.18 119.78 248.18 119.78L244.38 101.4Z" fill="#407BFF"/>
<path d="M262.22 58.77C262.22 58.77 266.47 61.84 263.31 69.85" stroke="#2E353A" stroke-width="0.5" stroke-linecap="round" stroke-linejoin="round"/>
<path d="M279.7 71.47C279.7 71.47 291.39 79.04 283.81 88.79" stroke="#2E353A" stroke-width="0.5" stroke-linecap="round" stroke-linejoin="round"/>
<path d="M209.8 0H41.86C36.1163 0 31.46 4.65624 31.46 10.4V329.07C31.46 334.814 36.1163 339.47 41.86 339.47H209.8C215.544 339.47 220.2 334.814 220.2 329.07V10.4C220.2 4.65624 215.544 0 209.8 0Z" fill="#2E353A"/>
<path d="M213.89 11.38V327.5C213.89 328.113 213.768 328.719 213.532 329.284C213.295 329.849 212.949 330.362 212.512 330.792C212.076 331.222 211.558 331.561 210.99 331.789C210.421 332.017 209.813 332.129 209.2 332.12H42.08C41.5236 332.127 40.9716 332.022 40.4568 331.81C39.9421 331.599 39.4752 331.286 39.0841 330.89C38.693 330.495 38.3856 330.024 38.1805 329.507C37.9753 328.99 37.8765 328.436 37.89 327.88V11C37.8699 10.5093 37.947 10.0194 38.1167 9.5585C38.2864 9.09761 38.5455 8.67478 38.8791 8.31428C39.2126 7.95377 39.6141 7.6627 40.0604 7.45775C40.5068 7.2528 40.9892 7.13802 41.48 7.12H83.26C83.8445 7.13042 84.4126 7.31486 84.8918 7.64973C85.3709 7.9846 85.7393 8.4547 85.95 8.99999L87.68 13.26C87.8938 13.8015 88.2636 14.2674 88.7425 14.5985C89.2214 14.9297 89.7879 15.1112 90.37 15.12H161.5C162.08 15.1176 162.645 14.9421 163.125 14.616C163.604 14.29 163.975 13.8283 164.19 13.29L165.89 9.00999C166.108 8.46274 166.482 7.9917 166.966 7.6556C167.449 7.31951 168.021 7.13323 168.61 7.12H209.79C210.895 7.15138 211.944 7.61529 212.711 8.41195C213.477 9.20861 213.901 10.2744 213.89 11.38Z" fill="#407BFF"/>
<path opacity="0.2" d="M213.89 27.62H37.89V67.12H213.89V27.62Z" fill="white"/>
<path opacity="0.6" d="M57.74 19.85H59.91V16.95H57.74V19.85Z" fill="white"/>
<path opacity="0.6" d="M54.2 19.86H56.37V15.99H54.2V19.86Z" fill="white"/>
<path opacity="0.6" d="M50.66 19.86H52.83V15.03H50.66V19.86Z" fill="white"/>
<path opacity="0.6" d="M47.11 19.85H49.28V14.05H47.11V19.85Z" fill="white"/>
<path opacity="0.6" d="M194.43 15.9H193.14V18.8H194.43V15.9Z" fill="white"/>
<path opacity="0.6" d="M195.3 19.86H205.57V14.85H195.3V19.86Z" fill="white"/>
<path opacity="0.6" d="M121.9 9.94999C123.237 9.94999 124.32 8.86652 124.32 7.52999C124.32 6.19346 123.237 5.10999 121.9 5.10999C120.563 5.10999 119.48 6.19346 119.48 7.52999C119.48 8.86652 120.563 9.94999 121.9 9.94999Z" fill="white"/>
<path opacity="0.6" d="M129.21 7.53001C129.21 7.83658 129.119 8.13625 128.949 8.39114C128.778 8.64604 128.536 8.84471 128.253 8.96202C127.97 9.07934 127.658 9.11003 127.358 9.05022C127.057 8.99042 126.781 8.84279 126.564 8.62602C126.347 8.40925 126.2 8.13307 126.14 7.8324C126.08 7.53173 126.111 7.22008 126.228 6.93685C126.345 6.65363 126.544 6.41155 126.799 6.24123C127.054 6.07092 127.353 5.98001 127.66 5.98001C128.071 5.98001 128.465 6.14332 128.756 6.434C129.047 6.72468 129.21 7.11893 129.21 7.53001Z" fill="white"/>
<path opacity="0.2" d="M213.89 272.12V327.5C213.89 328.113 213.768 328.719 213.532 329.284C213.295 329.849 212.949 330.362 212.512 330.792C212.076 331.222 211.558 331.561 210.99 331.789C210.421 332.017 209.813 332.129 209.2 332.12H42.08C41.5236 332.127 40.9716 332.022 40.4568 331.81C39.9421 331.599 39.4752 331.286 39.0841 330.89C38.693 330.495 38.3856 330.024 38.1805 329.507C37.9753 328.99 37.8765 328.436 37.89 327.88V272.12H213.89Z" fill="white"/>
<path d="M57.22 166.33L125.83 108.68L194.43 166.33L140.64 238.48L92.33 237.51L57.22 166.33Z" fill="#407BFF"/>
<path opacity="0.3" d="M57.22 166.33L125.83 108.68L194.43 166.33L140.64 238.48L92.33 237.51L57.22 166.33Z" fill="black"/>
<path d="M172.37 89.68H79.28C78.0374 89.68 77.03 90.6874 77.03 91.93V230.11C77.03 231.353 78.0374 232.36 79.28 232.36H172.37C173.613 232.36 174.62 231.353 174.62 230.11V91.93C174.62 90.6874 173.613 89.68 172.37 89.68Z" fill="white"/>
<path opacity="0.2" d="M163.52 102.56H88.14C87.7424 102.56 87.42 102.882 87.42 103.28V104.74C87.42 105.138 87.7424 105.46 88.14 105.46H163.52C163.918 105.46 164.24 105.138 164.24 104.74V103.28C164.24 102.882 163.918 102.56 163.52 102.56Z" fill="black"/>
<path opacity="0.2" d="M163.52 112.23H88.14C87.7424 112.23 87.42 112.552 87.42 112.95V114.41C87.42 114.808 87.7424 115.13 88.14 115.13H163.52C163.918 115.13 164.24 114.808 164.24 114.41V112.95C164.24 112.552 163.918 112.23 163.52 112.23Z" fill="black"/>
<path opacity="0.2" d="M163.52 121.9H88.14C87.7424 121.9 87.42 122.222 87.42 122.62V124.08C87.42 124.478 87.7424 124.8 88.14 124.8H163.52C163.918 124.8 164.24 124.478 164.24 124.08V122.62C164.24 122.222 163.918 121.9 163.52 121.9Z" fill="black"/>
<path opacity="0.2" d="M163.52 131.57H88.14C87.7424 131.57 87.42 131.892 87.42 132.29V133.75C87.42 134.148 87.7424 134.47 88.14 134.47H163.52C163.918 134.47 164.24 134.148 164.24 133.75V132.29C164.24 131.892 163.918 131.57 163.52 131.57Z" fill="black"/>
<path opacity="0.2" d="M163.52 141.24H88.14C87.7424 141.24 87.42 141.562 87.42 141.96V143.42C87.42 143.818 87.7424 144.14 88.14 144.14H163.52C163.918 144.14 164.24 143.818 164.24 143.42V141.96C164.24 141.562 163.918 141.24 163.52 141.24Z" fill="black"/>
<path opacity="0.2" d="M163.52 150.91H88.14C87.7424 150.91 87.42 151.232 87.42 151.63V153.09C87.42 153.488 87.7424 153.81 88.14 153.81H163.52C163.918 153.81 164.24 153.488 164.24 153.09V151.63C164.24 151.232 163.918 150.91 163.52 150.91Z" fill="black"/>
<path opacity="0.2" d="M163.52 160.58H88.14C87.7424 160.58 87.42 160.902 87.42 161.3V162.76C87.42 163.158 87.7424 163.48 88.14 163.48H163.52C163.918 163.48 164.24 163.158 164.24 162.76V161.3C164.24 160.902 163.918 160.58 163.52 160.58Z" fill="black"/>
<path opacity="0.2" d="M163.52 170.24H88.14C87.7424 170.24 87.42 170.562 87.42 170.96V172.42C87.42 172.818 87.7424 173.14 88.14 173.14H163.52C163.918 173.14 164.24 172.818 164.24 172.42V170.96C164.24 170.562 163.918 170.24 163.52 170.24Z" fill="black"/>
<path opacity="0.2" d="M163.52 179.91H88.14C87.7424 179.91 87.42 180.232 87.42 180.63V182.09C87.42 182.488 87.7424 182.81 88.14 182.81H163.52C163.918 182.81 164.24 182.488 164.24 182.09V180.63C164.24 180.232 163.918 179.91 163.52 179.91Z" fill="black"/>
<path d="M129.5 216.61L129.12 216.4C128.44 216.019 127.674 215.819 126.895 215.819C126.116 215.819 125.35 216.019 124.67 216.4L122.82 217.45L56.89 166.33V250.71C56.8925 251.298 57.012 251.879 57.2414 252.42C57.4708 252.961 57.8056 253.451 58.2263 253.862C58.647 254.272 59.1451 254.595 59.6917 254.811C60.2383 255.027 60.8224 255.132 61.41 255.12H190.25C192.73 255.12 193.89 253.21 193.89 250.71V166.33L129.5 216.61Z" fill="#407BFF"/>
<path opacity="0.6" d="M129.5 216.61L129.12 216.4C128.44 216.019 127.674 215.819 126.895 215.819C126.116 215.819 125.35 216.019 124.67 216.4L122.82 217.45L56.89 166.33V250.71C56.8925 251.298 57.012 251.879 57.2414 252.42C57.4708 252.961 57.8056 253.451 58.2263 253.862C58.647 254.272 59.1451 254.595 59.6917 254.811C60.2383 255.027 60.8224 255.132 61.41 255.12H190.25C192.73 255.12 193.89 253.21 193.89 250.71V166.33L129.5 216.61Z" fill="white"/>
<path opacity="0.2" d="M119.84 215.16L122.82 217.47L76.23 243.92L119.84 215.16Z" fill="black"/>
<path opacity="0.2" d="M180.39 244.92L129.43 216.66L131.78 214.82L180.39 244.92Z" fill="black"/>
<path d="M155.39 33.79H99.72C99.2616 33.79 98.89 34.1616 98.89 34.62V38.29C98.89 38.7484 99.2616 39.12 99.72 39.12H155.39C155.848 39.12 156.22 38.7484 156.22 38.29V34.62C156.22 34.1616 155.848 33.79 155.39 33.79Z" fill="#407BFF"/>
<path d="M201.56 61.79H175.89C175.006 61.7873 174.159 61.4343 173.535 60.8082C172.911 60.1821 172.56 59.3341 172.56 58.45C172.56 57.5668 172.911 56.7198 173.535 56.0953C174.16 55.4708 175.007 55.12 175.89 55.12H201.56C202.443 55.12 203.29 55.4708 203.915 56.0953C204.539 56.7198 204.89 57.5668 204.89 58.45C204.89 59.3341 204.54 60.1821 203.915 60.8082C203.291 61.4343 202.444 61.7873 201.56 61.79Z" fill="#407BFF"/>
<path d="M76.23 280.45H50.56V304.78H76.23V280.45Z" fill="#407BFF"/>
<path d="M107.45 280.45H81.78V304.78H107.45V280.45Z" fill="#407BFF"/>
<path d="M138.68 280.45H113.01V304.78H138.68V280.45Z" fill="#407BFF"/>
<path d="M169.91 280.45H144.24V304.78H169.91V280.45Z" fill="#407BFF"/>
<path d="M201.13 280.45H175.46V304.78H201.13V280.45Z" fill="#407BFF"/>
<path d="M201.56 321.95H175.89C175.007 321.95 174.16 321.599 173.535 320.975C172.911 320.35 172.56 319.503 172.56 318.62C172.56 317.736 172.911 316.888 173.535 316.262C174.159 315.636 175.006 315.283 175.89 315.28H201.56C202.444 315.283 203.291 315.636 203.915 316.262C204.54 316.888 204.89 317.736 204.89 318.62C204.89 319.503 204.539 320.35 203.915 320.975C203.29 321.599 202.443 321.95 201.56 321.95Z" fill="#407BFF"/>
<path opacity="0.1" d="M195.85 0.119995L31.46 234.04V130.41L122.94 0.119995H195.85Z" fill="white"/>
<path opacity="0.1" d="M100.75 0.119984L31.89 98.46V10.46C31.8359 9.11631 32.0549 7.77563 32.5339 6.51907C33.013 5.26251 33.742 4.11621 34.6768 3.14956C35.6117 2.18291 36.733 1.41601 37.9728 0.895268C39.2127 0.374526 40.5453 0.110776 41.89 0.119984H100.75Z" fill="white"/>
<path d="M261.46 17.03C217.37 23.24 158.64 40.74 108.2 62.69C75.38 76.97 18.13 105.4 3.50003 135.34C-0.879973 144.34 -0.919971 152.68 3.40003 160.17C7.72003 167.66 17.75 172.87 31.89 176.42V174.78C18.39 171.37 8.77003 166.44 4.74003 159.43C0.710025 152.42 0.740027 144.5 4.89003 136C15.42 114.44 53.31 88.22 108.89 64.06C159.13 42.12 217.71 24.71 261.67 18.52C261.868 18.4922 262.046 18.387 262.166 18.2276C262.286 18.0682 262.338 17.8676 262.31 17.67C262.282 17.4724 262.177 17.294 262.018 17.174C261.858 17.0539 261.658 17.0022 261.46 17.03Z" fill="white"/>
<path d="M261.46 17.03C217.37 23.24 158.64 40.74 108.2 62.69C75.38 76.97 18.13 105.4 3.50003 135.34C-0.879973 144.34 -0.919971 152.68 3.40003 160.17C7.72003 167.66 17.75 172.87 31.89 176.42V174.78C18.39 171.37 8.77003 166.44 4.74003 159.43C0.710025 152.42 0.740027 144.5 4.89003 136C15.42 114.44 53.31 88.22 108.89 64.06C159.13 42.12 217.71 24.71 261.67 18.52C261.868 18.4922 262.046 18.387 262.166 18.2276C262.286 18.0682 262.338 17.8676 262.31 17.67C262.282 17.4724 262.177 17.294 262.018 17.174C261.858 17.0539 261.658 17.0022 261.46 17.03Z" fill="#407BFF"/>
<path d="M4.05003 160.55C3.9176 160.551 3.78742 160.516 3.67308 160.449C3.55875 160.382 3.46446 160.286 3.40003 160.17C-0.919971 152.68 -0.879973 144.32 3.50003 135.34C18.13 105.4 75.38 76.97 108.2 62.69C158.64 40.74 217.37 23.24 261.46 17.03C261.658 17.0022 261.858 17.0539 262.018 17.174C262.177 17.294 262.282 17.4724 262.31 17.67C262.338 17.8676 262.286 18.0682 262.166 18.2276C262.046 18.387 261.868 18.4922 261.67 18.52C217.67 24.71 159.13 42.16 108.8 64.06C53.27 88.22 15.38 114.44 4.89003 136C0.740027 144.5 0.690025 152.39 4.74003 159.43C4.83139 159.601 4.85327 159.8 4.80109 159.986C4.74891 160.173 4.6267 160.332 4.46003 160.43C4.33813 160.509 4.19552 160.551 4.05003 160.55Z" fill="#407BFF"/>
<g opacity="0.8">
<path d="M4.05003 160.55C3.9176 160.551 3.78742 160.516 3.67308 160.449C3.55875 160.382 3.46446 160.286 3.40003 160.17C-0.919971 152.68 -0.879973 144.32 3.50003 135.34C18.13 105.4 75.38 76.97 108.2 62.69C158.64 40.74 217.37 23.24 261.46 17.03C261.658 17.0022 261.858 17.0539 262.018 17.174C262.177 17.294 262.282 17.4724 262.31 17.67C262.338 17.8676 262.286 18.0682 262.166 18.2276C262.046 18.387 261.868 18.4922 261.67 18.52C217.67 24.71 159.13 42.16 108.8 64.06C53.27 88.22 15.38 114.44 4.89003 136C0.740027 144.5 0.690025 152.39 4.74003 159.43C4.83139 159.601 4.85327 159.8 4.80109 159.986C4.74891 160.173 4.6267 160.332 4.46003 160.43C4.33813 160.509 4.19552 160.551 4.05003 160.55Z" fill="#7FA6FF"/>
</g>
<path d="M282.07 27.62L324.55 5.12L287.39 17.35L282.07 27.62Z" fill="#407BFF"/>
<path opacity="0.3" d="M282.07 27.62L324.55 5.12L287.39 17.35L282.07 27.62Z" fill="black"/>
<path d="M272.03 7.7L279.89 13.12L282.07 27.62L287.39 17.35L300.85 24.12L324.55 5.12L272.03 7.7Z" fill="#407BFF"/>
<path opacity="0.6" d="M272.03 7.7L279.89 13.12L282.07 27.62L287.39 17.35L300.85 24.12L324.55 5.12L272.03 7.7Z" fill="white"/>
<path opacity="0.2" d="M279.89 13.12L324.55 5.12L287.39 17.35L282.07 27.62L279.89 13.12Z" fill="black"/>
</svg>
